<?xml version="1.0" encoding="utf-8"?>
<!-- Generator: Adobe Illustrator 23.0.1, SVG Export Plug-In . SVG Version: 6.00 Build 0)  -->
<svg version="1.1" id="Layer_1" xmlns="http://www.w3.org/2000/svg" xmlns:xlink="http://www.w3.org/1999/xlink" x="0px" y="0px"
	 viewBox="0 0 92 109" style="enable-background:new 0 0 92 109;" xml:space="preserve">
<style type="text/css">
	.st0{fill:#00AF5C;}
	.st1{fill:#FF2526;}
	.st2{fill:#FFDA3D;}
	.st3{fill:#E5E5E5;}
	.st4{fill:#26364D;}
	.st5{fill:#FFFFFF;}
	.st6{fill:none;stroke:#000000;stroke-miterlimit:10;}
	.st7{fill:none;stroke:#000000;stroke-linecap:round;stroke-linejoin:round;stroke-miterlimit:10;}
</style>
<polygon class="st0" points="71.4,88.41 89,89 91,91 91,105 90,107 87,108 71.4,108.07 "/>
<polygon class="st1" points="44,72 42,82 50,82 48,72 "/>
<path class="st2" d="M31,41c0,0-4-7-2-10s3-6,5-7s6-3,6-3l5.22,0.75l5.41,2.29l2.18,1.53c0,0,3.34,0.04,3.76,0.24C57,26,61,29,61,29
	l1.92,4.51L62,38l-2,2l-2-2l-2-1l-2.37-1.72L53,34l-1-1l-2,2l-5,3l-4,2l-6,1l-2,2L31,41z"/>
<path class="st3" d="M20,73l-9-12L6,48l1-15l3-8l5-8l7-7l6-4l7-3l7-1h7l11,2l8,4l8,6l5,8l3,7l3,11l-1,11l-5,12l-7,10h-3l-3-3l-4-2
	l-6-2h-5l0.04-3.2L53,60l3-2l3-4l1-7l0.5,2.5l1-1l2-3l-1-2l-1-2l-1-1l1-3l2-2l-1-4l-1-3c0,0-4-4-9-3c0,0-6-5-13-5c0,0-8,3-10,7
	c0,0-2,7,1,14v2c0,0-2,3,1,7l2,2l4,6l3,2v3v3h-9l-7,4l-2,2l-1,1L20,73z"/>
<g>
	<path class="st4" d="M46.36,83.41c-1.35,0-2.71-0.07-4.03-0.2c-1.24-0.11-2.54-0.3-3.84-0.54c-2.05-0.4-4.11-0.97-6.14-1.7
		c-3.97-1.4-7.7-3.43-11.1-6.03l-0.16-0.12c-0.19-0.16-0.38-0.31-0.58-0.45c-0.41-0.33-0.76-0.63-1.1-0.94l-0.24-0.21
		c-0.17-0.15-0.34-0.31-0.53-0.49C9.9,64.96,4.86,53.71,4.86,41.91c0-22.88,18.61-41.49,41.49-41.49s41.49,18.61,41.49,41.49
		c0,11.42-4.77,22.43-13.08,30.22l-0.24,0.23c-0.16,0.15-0.33,0.31-0.5,0.46c-0.21,0.19-0.46,0.41-0.72,0.61
		c0,0.01-0.09,0.08-0.19,0.17c-0.28,0.24-0.47,0.39-0.66,0.54l-0.23,0.18c-0.21,0.18-0.47,0.38-0.72,0.56
		c-3.37,2.61-7.13,4.66-11.15,6.09c-2.02,0.73-4.09,1.3-6.13,1.69c-1.3,0.25-2.6,0.43-3.85,0.54
		C49.07,83.34,47.71,83.41,46.36,83.41z M22.44,73.01l0.29,0.23c3.09,2.36,6.62,4.27,10.37,5.6c1.92,0.69,3.87,1.23,5.8,1.6
		c1.22,0.23,2.45,0.4,3.63,0.51c2.52,0.26,5.13,0.25,7.63,0c1.19-0.11,2.41-0.28,3.64-0.52c1.93-0.37,3.88-0.91,5.79-1.6
		c3.8-1.35,7.35-3.29,10.57-5.78c0.24-0.17,0.44-0.33,0.64-0.5l0.27-0.21c0.16-0.13,0.32-0.25,0.48-0.39l0.37-0.31
		c0.21-0.16,0.41-0.34,0.61-0.52c0.17-0.15,0.31-0.28,0.45-0.41l0.26-0.24c7.85-7.36,12.36-17.77,12.36-28.57
		c0-21.64-17.6-39.24-39.24-39.24S7.12,20.28,7.12,41.91c0,11.15,4.76,21.79,13.07,29.18c0.24,0.24,0.41,0.4,0.61,0.55l0.22,0.21
		c0.32,0.28,0.59,0.5,0.86,0.72C22.05,72.7,22.24,72.84,22.44,73.01z"/>
</g>
<path class="st4" d="M56.39,65.08h-3.35v-3.45c3.92-2.39,6.64-6.26,7.5-10.67c2.28-0.63,3.66-3.92,3.66-6.34
	c0.18-1.82-0.99-3.53-2.8-4.07c3.01-3.03,3.66-7.56,1.64-11.26c-2.03-3.69-6.28-5.73-10.56-5.03c-5.22-5.45-13.96-6-19.89-1.25
	c-5.92,4.75-6.98,13.14-2.39,19.11c-1.15,0.83-1.81,2.18-1.71,3.56c0,2.52,1.48,5.97,3.94,6.41c1.07,3.95,3.66,7.35,7.22,9.53v3.45
	h-3.33c-5.04,0-9.87,1.92-13.42,5.37c-0.94,0.89-1.77,1.89-2.47,2.96c0.02,0.03,0.05,0.05,0.07,0.07c0.33,0.29,0.65,0.57,0.99,0.85
	c0.23,0.16,0.44,0.33,0.65,0.5c0.65-1.04,1.45-2,2.34-2.86c3.12-3.03,7.39-4.73,11.84-4.72h3.33c0,0.23,0.08,0.46,0.23,0.63
	l3.06,3.94l-1.98,10.51h-2.16c1.2,0.23,2.44,0.41,3.69,0.52c1.27,0.13,2.57,0.2,3.87,0.2s2.6-0.07,3.87-0.2
	c1.25-0.11,2.49-0.29,3.69-0.52h-2.16l-1.98-10.51l2.88-3.71l0.16-0.23c0.15-0.18,0.23-0.41,0.23-0.63h3.35
	c5.95,0,11.19,2.99,14.15,7.58c0.23-0.16,0.46-0.34,0.67-0.52c0.24-0.2,0.5-0.39,0.75-0.6c0.11-0.1,0.23-0.18,0.33-0.28
	C68.89,68.41,63.05,65.09,56.39,65.08z M61.97,44.61c-0.02,1.24-0.41,2.44-1.12,3.48v-5.48C61.61,42.91,61.97,43.54,61.97,44.61z
	 M30.74,45.69c-0.11-0.76,0.26-1.53,0.96-1.92c0.05,0.05,0.1,0.11,0.15,0.15V48c0,0.41,0.02,0.83,0.05,1.25
	C31.16,48.19,30.76,46.96,30.74,45.69z M32.42,41.38c-3.03-3.55-3.66-8.44-1.63-12.59c2.02-4.16,6.34-6.8,11.09-6.8
	c3.61,0,7.03,1.51,9.35,4.16c0.28,0.31,0.7,0.44,1.11,0.34c3.3-0.76,6.75,0.63,8.51,3.45c1.76,2.8,1.43,6.39-0.81,8.87
	c-0.03-0.05-0.07-0.11-0.1-0.15c-0.15-0.24-0.31-0.49-0.5-0.73c-0.05-0.08-0.11-0.15-0.16-0.23c-0.24-0.31-0.52-0.63-0.81-0.96
	l-0.2-0.2c-0.26-0.28-0.54-0.55-0.83-0.83c-0.1-0.1-0.2-0.2-0.29-0.28c-0.37-0.36-0.76-0.7-1.2-1.06c-1.07-0.91-2.21-1.74-3.38-2.52
	c-0.39-0.26-0.91-0.24-1.3,0.03l-6.05,4.44c-2.51,1.84-5.53,2.85-8.67,2.86h-0.26c-0.23,0-0.44,0.03-0.67,0.07
	c-0.03,0-0.07,0-0.1,0.02c-0.2,0.03-0.39,0.08-0.57,0.13l-0.07,0.02c-0.2,0.07-0.39,0.15-0.59,0.24h-0.02
	C33.49,40.04,32.86,40.64,32.42,41.38z M43.23,82.32l1.82-9.69h2.6l1.82,9.69H43.23z M50.81,66.87l-2.8,3.59h-3.33l-2.8-3.58V62.8
	c0.11,0.05,0.21,0.07,0.31,0.11c0.44,0.16,0.88,0.33,1.33,0.46c0.16,0.07,0.33,0.11,0.5,0.16c0.59,0.16,1.19,0.29,1.81,0.41
	l0.34,0.05c0.11,0.02,0.24,0.02,0.36,0l0.34-0.05c0.6-0.11,1.2-0.24,1.81-0.41c0.16-0.05,0.33-0.1,0.5-0.15
	c0.46-0.15,0.89-0.29,1.33-0.47c0.1-0.03,0.2-0.07,0.29-0.11V66.87z M51.37,60.12c-1.5,0.85-3.16,1.43-4.86,1.69l-0.15,0.03
	l-0.15-0.03c-1.72-0.28-3.37-0.85-4.88-1.69c-3.58-2-6.1-5.38-6.95-9.29c-0.2-0.93-0.31-1.89-0.31-2.83v-4.51c0-0.02,0-0.02,0-0.03
	c0.02-0.2,0.05-0.39,0.11-0.59c0-0.03,0.02-0.07,0.03-0.11c0.07-0.18,0.16-0.36,0.29-0.52c0-0.02,0.02-0.03,0.03-0.05
	c0.13-0.16,0.28-0.29,0.46-0.42v-0.02c0.18-0.11,0.36-0.2,0.57-0.26c0.03-0.02,0.05-0.03,0.08-0.03c0.21-0.07,0.42-0.1,0.63-0.1
	h0.26c3.63-0.03,7.16-1.2,10.05-3.35l5.35-3.92c0.6,0.42,1.55,1.11,2.54,1.92c0.28,0.24,0.55,0.47,0.81,0.72
	c1.45,1.11,2.57,2.55,3.25,4.2c0.05,0.15,0.07,0.29,0.07,0.46V48c0,0.62-0.03,1.24-0.13,1.85C57.89,54.15,55.25,57.95,51.37,60.12z"
	/>
<g>
	<path class="st4" d="M87.31,109.01H4.69c-2.59,0-4.69-2.1-4.69-4.69V92.16c0-2.59,2.11-4.69,4.69-4.69h82.61
		c2.59,0,4.69,2.1,4.69,4.69v12.15C92,106.9,89.89,109.01,87.31,109.01z M4.69,89.35c-1.55,0-2.82,1.26-2.82,2.82v12.15
		c0,1.55,1.26,2.82,2.82,2.82h82.61c1.55,0,2.82-1.26,2.82-2.82V92.16c0-1.55-1.26-2.82-2.82-2.82H4.69z"/>
</g>
<path class="st4" d="M16.18,102.41c-0.26,0-0.47-0.21-0.47-0.47v-7.69c0-0.26,0.21-0.47,0.47-0.47c0.26,0,0.47,0.21,0.47,0.47v7.69
	C16.65,102.19,16.44,102.41,16.18,102.41z"/>
<path class="st4" d="M19,101.28c-0.12,0-0.23-0.04-0.33-0.13l-2.9-2.79c-1.21-1.16-1.94-1.87-2.37-2.32
	c-0.05-0.02-0.09-0.05-0.13-0.09l-0.25-0.24l0.05-0.05c-0.3-0.37-0.22-0.45-0.06-0.62c0.23-0.24,0.45-0.17,0.66,0l0.01-0.01
	c0.01,0.01,0.07,0.07,0.18,0.17c0.02,0.02,0.05,0.04,0.07,0.07c0,0,0.01,0.01,0.01,0.01c0.45,0.43,1.43,1.37,2.49,2.4l2.9,2.79
	c0.19,0.18,0.19,0.48,0.01,0.66C19.25,101.23,19.13,101.28,19,101.28z"/>
<path class="st4" d="M20.17,98.56h-7.99c-0.26,0-0.47-0.21-0.47-0.47s0.21-0.47,0.47-0.47h7.99c0.26,0,0.47,0.21,0.47,0.47
	S20.43,98.56,20.17,98.56z"/>
<g>
	<path class="st4" d="M28.96,102.41c-0.26,0-0.47-0.21-0.47-0.47v-7.69c0-0.26,0.21-0.47,0.47-0.47s0.47,0.21,0.47,0.47v7.69
		C29.43,102.19,29.22,102.41,28.96,102.41z"/>
</g>
<g>
	<path class="st4" d="M31.78,100.81c-2.25-2.17-6.75-6.5-5.4-5.2"/>
	<path class="st4" d="M31.78,101.28c-0.12,0-0.23-0.04-0.33-0.13l-5.4-5.2c0,0,0,0,0,0l-0.19-0.18h0l-0.01-0.01
		c-0.18-0.18-0.23-0.52-0.06-0.71c0.17-0.17,0.47-0.15,0.66-0.01l0,0l5.65,5.44c0.19,0.18,0.19,0.48,0.01,0.66
		C32.03,101.23,31.91,101.28,31.78,101.28z"/>
</g>
<g>
	<path class="st4" d="M24.97,98.09c3.18,0,9.55,0,7.64,0"/>
	<path class="st4" d="M32.95,98.56h-7.99c-0.26,0-0.47-0.21-0.47-0.47s0.21-0.47,0.47-0.47h7.99c0.26,0,0.47,0.21,0.47,0.47
		S33.21,98.56,32.95,98.56z"/>
</g>
<g>
	<path class="st4" d="M41.74,102.41c-0.26,0-0.47-0.21-0.47-0.47v-7.69c0-0.26,0.21-0.47,0.47-0.47c0.26,0,0.47,0.21,0.47,0.47v7.69
		C42.21,102.19,42,102.41,41.74,102.41z"/>
</g>
<g>
	<path class="st4" d="M44.56,100.81c-2.25-2.17-6.75-6.5-5.4-5.2"/>
	<path class="st4" d="M44.56,101.28c-0.12,0-0.23-0.04-0.33-0.13l-5.4-5.2c0,0,0,0,0,0l-0.19-0.18h0l-0.01-0.01
		c-0.18-0.18-0.23-0.52-0.06-0.71c0.17-0.17,0.47-0.15,0.66-0.01l0,0l5.65,5.44c0.19,0.18,0.19,0.48,0.01,0.66
		C44.81,101.23,44.69,101.28,44.56,101.28z"/>
</g>
<g>
	<path class="st4" d="M37.75,98.09c3.18,0,9.55,0,7.64,0"/>
	<path class="st4" d="M45.73,98.56h-7.99c-0.26,0-0.47-0.21-0.47-0.47s0.21-0.47,0.47-0.47h7.99c0.26,0,0.47,0.21,0.47,0.47
		S45.99,98.56,45.73,98.56z"/>
</g>
<g>
	<path class="st4" d="M54.52,102.41c-0.26,0-0.47-0.21-0.47-0.47v-7.69c0-0.26,0.21-0.47,0.47-0.47c0.26,0,0.47,0.21,0.47,0.47v7.69
		C54.99,102.19,54.78,102.41,54.52,102.41z"/>
</g>
<g>
	<path class="st4" d="M57.34,100.81c-2.25-2.17-6.75-6.5-5.4-5.2"/>
	<path class="st4" d="M57.34,101.28c-0.12,0-0.23-0.04-0.33-0.13l-2.9-2.79c-1.21-1.16-1.94-1.87-2.37-2.32
		c-0.05-0.02-0.09-0.05-0.13-0.09l-0.25-0.24l0.05-0.05c-0.3-0.37-0.22-0.45-0.06-0.62c0.23-0.24,0.45-0.17,0.66,0l0.01-0.01
		c0.01,0.01,0.07,0.07,0.18,0.17c0.02,0.02,0.05,0.04,0.07,0.07c0,0,0.01,0.01,0.01,0.01c0.45,0.43,1.43,1.37,2.49,2.4l2.9,2.79
		c0.19,0.18,0.19,0.48,0.01,0.66C57.59,101.23,57.47,101.28,57.34,101.28z"/>
</g>
<g>
	<path class="st4" d="M51.7,100.81c2.25-2.17,6.75-6.5,5.4-5.2"/>
	<path class="st4" d="M51.69,101.28c-0.12,0-0.25-0.05-0.34-0.14c-0.18-0.19-0.17-0.48,0.01-0.66l2.9-2.79
		c1.07-1.03,2.04-1.97,2.49-2.4c0,0,0.01-0.01,0.01-0.01c0.02-0.02,0.05-0.05,0.07-0.07c0.11-0.1,0.17-0.16,0.18-0.17l0.01,0.01
		c0.21-0.16,0.43-0.23,0.66,0c0.16,0.16,0.24,0.25-0.06,0.62l0.05,0.05l-0.25,0.24c-0.04,0.04-0.09,0.07-0.13,0.09
		c-0.43,0.45-1.17,1.16-2.37,2.32l-2.9,2.79C51.93,101.24,51.81,101.28,51.69,101.28z"/>
</g>
<g>
	<path class="st4" d="M13.36,101.28c-0.12,0-0.25-0.05-0.34-0.14c-0.18-0.19-0.17-0.48,0.01-0.66l2.9-2.79
		c1.07-1.03,2.04-1.97,2.49-2.4c0,0,0.01-0.01,0.01-0.01c0.02-0.02,0.05-0.05,0.07-0.07c0.11-0.1,0.17-0.16,0.18-0.17l0.01,0.01
		c0.21-0.16,0.43-0.23,0.66,0c0.16,0.16,0.24,0.25-0.06,0.62l0.05,0.05l-0.25,0.24c-0.04,0.04-0.09,0.07-0.13,0.09
		c-0.43,0.45-1.17,1.16-2.37,2.32l-2.9,2.79C13.59,101.24,13.47,101.28,13.36,101.28z"/>
</g>
<g>
	<path class="st4" d="M26.14,100.81c2.25-2.17,6.75-6.5,5.4-5.2"/>
	<path class="st4" d="M26.14,101.28c-0.12,0-0.25-0.05-0.34-0.14c-0.18-0.19-0.17-0.48,0.01-0.66l2.9-2.79
		c1.07-1.03,2.04-1.97,2.49-2.4c0,0,0.01-0.01,0.01-0.01c0.02-0.02,0.05-0.05,0.07-0.07c0.11-0.1,0.17-0.16,0.18-0.17l0.01,0.01
		c0.21-0.16,0.43-0.23,0.66,0c0.16,0.16,0.24,0.25-0.06,0.62l0.05,0.05l-0.25,0.24c-0.04,0.04-0.09,0.07-0.13,0.09
		c-0.43,0.45-1.17,1.16-2.37,2.32l-2.9,2.79C26.37,101.24,26.25,101.28,26.14,101.28z"/>
</g>
<g>
	<path class="st4" d="M38.92,100.81c2.25-2.17,6.75-6.5,5.4-5.2"/>
	<path class="st4" d="M38.92,101.28c-0.12,0-0.25-0.05-0.34-0.14c-0.18-0.19-0.17-0.48,0.01-0.66l2.9-2.79
		c1.07-1.03,2.04-1.97,2.49-2.4c0,0,0.01-0.01,0.01-0.01c0.02-0.02,0.05-0.05,0.07-0.07c0.11-0.1,0.17-0.16,0.18-0.17l0.01,0.01
		c0.21-0.16,0.43-0.23,0.66,0c0.16,0.16,0.24,0.25-0.06,0.62l0.05,0.05l-0.25,0.24c-0.04,0.04-0.09,0.07-0.13,0.09
		c-0.43,0.45-1.17,1.16-2.37,2.32l-2.9,2.79C39.15,101.24,39.03,101.28,38.92,101.28z"/>
</g>
<g>
	<path class="st4" d="M50.53,98.09c3.18,0,9.55,0,7.64,0"/>
	<path class="st4" d="M58.51,98.56h-7.99c-0.26,0-0.47-0.21-0.47-0.47s0.21-0.47,0.47-0.47h7.99c0.26,0,0.47,0.21,0.47,0.47
		S58.77,98.56,58.51,98.56z"/>
</g>
<g>
	<rect x="70.46" y="88.41" class="st4" width="1.88" height="19.66"/>
</g>
<path class="st5" d="M85.86,94.01l-5.3,5.9l-2.42-2.7c-0.29-0.32-0.75-0.32-1.03,0c-0.29,0.32-0.29,0.83,0,1.15l2.94,3.27
	c0.14,0.16,0.33,0.24,0.52,0.24c0.19,0,0.37-0.08,0.52-0.24l5.82-6.47c0.29-0.32,0.29-0.83,0-1.15
	C86.61,93.69,86.15,93.69,85.86,94.01z"/>
</svg>
